<svg xmlns="http://www.w3.org/2000/svg" viewBox="0 0 80 80">
  <g fill="none" stroke-linecap="round" stroke-linejoin="round">
    <!-- Main frond clusters in top-right quadrant -->
    <g opacity="0.6">
      <path d="M72 4 C70 10, 68 16, 64 22" stroke="#3DDC84" stroke-width="1.5"/>
      <path d="M70 8 C74 10, 76 7, 73 5" stroke="#3DDC84" stroke-width="1" fill="#3DDC84" fill-opacity="0.2"/>
      <path d="M68 13 C72 15, 74 12, 71 10" stroke="#3DDC84" stroke-width="1" fill="#3DDC84" fill-opacity="0.18"/>
      <path d="M66 18 C70 20, 71 17, 68 15" stroke="#3DDC84" stroke-width="0.8" fill="#3DDC84" fill-opacity="0.15"/>
    </g>
    <g opacity="0.5">
      <path d="M78 10 C74 16, 70 20, 66 26" stroke="#2BA866" stroke-width="1.3"/>
      <path d="M76 14 C80 16, 79 12, 77 11" stroke="#2BA866" stroke-width="0.9" fill="#2BA866" fill-opacity="0.18"/>
      <path d="M73 18 C77 20, 78 17, 75 15" stroke="#2BA866" stroke-width="0.9" fill="#2BA866" fill-opacity="0.15"/>
      <path d="M70 23 C74 24, 74 21, 71 20" stroke="#2BA866" stroke-width="0.8" fill="#2BA866" fill-opacity="0.12"/>
    </g>
    <g opacity="0.4">
      <path d="M62 2 C60 8, 56 14, 52 18" stroke="#3DDC84" stroke-width="1.2"/>
      <path d="M60 5 C63 7, 64 4, 62 3" stroke="#3DDC84" stroke-width="0.8" fill="#3DDC84" fill-opacity="0.15"/>
      <path d="M58 10 C61 12, 62 9, 59 8" stroke="#3DDC84" stroke-width="0.8" fill="#3DDC84" fill-opacity="0.12"/>
    </g>
    <g opacity="0.35">
      <path d="M76 2 C75 6, 72 10, 68 14" stroke="#3DDC84" stroke-width="1"/>
      <path d="M75 5 C78 6, 78 3, 76 2" stroke="#3DDC84" stroke-width="0.7" fill="#3DDC84" fill-opacity="0.12"/>
    </g>
    <!-- Small moss dots -->
    <circle cx="66" cy="6" r="1.2" fill="#3DDC84" opacity="0.3"/>
    <circle cx="74" cy="8" r="0.9" fill="#2BA866" opacity="0.35"/>
    <circle cx="58" cy="4" r="1" fill="#3DDC84" opacity="0.25"/>
    <circle cx="70" cy="3" r="0.8" fill="#2BA866" opacity="0.3"/>
    <circle cx="78" cy="5" r="0.7" fill="#3DDC84" opacity="0.4"/>
    <!-- Wispy tendrils -->
    <path d="M64 24 C60 28, 56 30, 52 28" stroke="#3DDC84" stroke-width="0.6" opacity="0.3"/>
    <path d="M68 26 C66 30, 62 32, 58 30" stroke="#2BA866" stroke-width="0.6" opacity="0.25"/>
  </g>
</svg>
