<svg xmlns="http://www.w3.org/2000/svg" viewBox="0 0 500 300">
  <g fill="none" stroke-linecap="round" stroke-linejoin="round">
    <!-- Frond 1: large, bottom-left sweeping right -->
    <g opacity="0.2">
      <path d="M20 280 C40 250, 80 200, 130 160 S200 110, 250 90" stroke="#3DDC84" stroke-width="2.2"/>
      <path d="M50 258 C36 248, 28 244, 24 248" fill="#3DDC84" fill-opacity="0.3" stroke="#3DDC84" stroke-width="0.7"/>
      <path d="M58 252 C68 244, 76 244, 78 248" fill="#3DDC84" fill-opacity="0.3" stroke="#3DDC84" stroke-width="0.7"/>
      <path d="M80 228 C64 216, 54 212, 50 216" fill="#3DDC84" fill-opacity="0.25" stroke="#3DDC84" stroke-width="0.7"/>
      <path d="M88 224 C100 214, 110 212, 112 216" fill="#3DDC84" fill-opacity="0.25" stroke="#3DDC84" stroke-width="0.7"/>
      <path d="M115 192 C98 180, 88 176, 84 180" fill="#3DDC84" fill-opacity="0.2" stroke="#3DDC84" stroke-width="0.6"/>
      <path d="M122 190 C136 180, 146 178, 148 182" fill="#3DDC84" fill-opacity="0.2" stroke="#3DDC84" stroke-width="0.6"/>
      <path d="M152 158 C138 148, 130 146, 128 148" fill="#3DDC84" fill-opacity="0.18" stroke="#3DDC84" stroke-width="0.5"/>
      <path d="M158 156 C170 148, 178 148, 179 150" fill="#3DDC84" fill-opacity="0.18" stroke="#3DDC84" stroke-width="0.5"/>
      <path d="M195 126 C184 118, 178 116, 177 118" fill="#3DDC84" fill-opacity="0.15" stroke="#3DDC84" stroke-width="0.4"/>
      <path d="M200 125 C210 118, 216 118, 217 120" fill="#3DDC84" fill-opacity="0.15" stroke="#3DDC84" stroke-width="0.4"/>
    </g>
    <!-- Frond 2: medium, center sweeping up-right -->
    <g opacity="0.25">
      <path d="M180 290 C190 260, 210 210, 240 170 S280 120, 310 90 S340 60, 360 45" stroke="#2BA866" stroke-width="2"/>
      <path d="M198 262 C186 254, 178 252, 176 256" fill="#2BA866" fill-opacity="0.25" stroke="#2BA866" stroke-width="0.6"/>
      <path d="M204 258 C214 250, 222 250, 224 254" fill="#2BA866" fill-opacity="0.25" stroke="#2BA866" stroke-width="0.6"/>
      <path d="M222 224 C210 214, 202 212, 200 216" fill="#2BA866" fill-opacity="0.2" stroke="#2BA866" stroke-width="0.6"/>
      <path d="M228 222 C238 214, 246 214, 247 217" fill="#2BA866" fill-opacity="0.2" stroke="#2BA866" stroke-width="0.6"/>
      <path d="M250 186 C240 178, 234 176, 233 179" fill="#2BA866" fill-opacity="0.18" stroke="#2BA866" stroke-width="0.5"/>
      <path d="M255 184 C264 178, 270 178, 271 180" fill="#2BA866" fill-opacity="0.18" stroke="#2BA866" stroke-width="0.5"/>
      <path d="M282 148 C274 142, 270 140, 269 142" fill="#2BA866" fill-opacity="0.15" stroke="#2BA866" stroke-width="0.4"/>
      <path d="M286 146 C294 142, 298 142, 299 144" fill="#2BA866" fill-opacity="0.15" stroke="#2BA866" stroke-width="0.4"/>
    </g>
    <!-- Frond 3: small, right side -->
    <g opacity="0.18">
      <path d="M380 270 C390 240, 405 200, 420 165 S440 120, 455 95" stroke="#3DDC84" stroke-width="1.8"/>
      <path d="M392 244 C382 236, 376 236, 375 238" fill="#3DDC84" fill-opacity="0.25" stroke="#3DDC84" stroke-width="0.6"/>
      <path d="M396 242 C404 236, 410 236, 411 238" fill="#3DDC84" fill-opacity="0.25" stroke="#3DDC84" stroke-width="0.6"/>
      <path d="M408 210 C400 204, 394 204, 394 206" fill="#3DDC84" fill-opacity="0.2" stroke="#3DDC84" stroke-width="0.5"/>
      <path d="M412 208 C420 204, 424 204, 425 206" fill="#3DDC84" fill-opacity="0.2" stroke="#3DDC84" stroke-width="0.5"/>
      <path d="M426 174 C420 170, 416 170, 416 172" fill="#3DDC84" fill-opacity="0.15" stroke="#3DDC84" stroke-width="0.4"/>
      <path d="M428 173 C434 170, 438 170, 438 172" fill="#3DDC84" fill-opacity="0.15" stroke="#3DDC84" stroke-width="0.4"/>
    </g>
    <!-- Frond 4: thin accent, far left -->
    <g opacity="0.15">
      <path d="M60 295 C55 270, 48 230, 42 195 S36 145, 35 120" stroke="#2BA866" stroke-width="1.5"/>
      <path d="M54 268 C46 262, 40 262, 40 264" fill="#2BA866" fill-opacity="0.2" stroke="#2BA866" stroke-width="0.5"/>
      <path d="M52 240 C44 234, 38 234, 38 236" fill="#2BA866" fill-opacity="0.18" stroke="#2BA866" stroke-width="0.5"/>
      <path d="M48 210 C40 206, 36 206, 36 208" fill="#2BA866" fill-opacity="0.15" stroke="#2BA866" stroke-width="0.4"/>
      <path d="M44 180 C38 176, 34 176, 34 178" fill="#2BA866" fill-opacity="0.12" stroke="#2BA866" stroke-width="0.4"/>
    </g>
    <!-- Connecting vine tendrils -->
    <path d="M130 160 C140 155, 160 162, 180 158 S210 150, 230 158" stroke="#3DDC84" stroke-width="0.8" opacity="0.15"/>
    <path d="M250 92 C270 88, 290 95, 310 90" stroke="#2BA866" stroke-width="0.7" opacity="0.12"/>
    <path d="M310 270 C330 264, 350 270, 370 268" stroke="#3DDC84" stroke-width="0.6" opacity="0.1"/>
  </g>
</svg>
