<svg xmlns="http://www.w3.org/2000/svg" viewBox="0 0 200 20">
  <g fill="none" stroke="#3DDC84" stroke-linecap="round" stroke-linejoin="round">
    <!-- Main sinuous stem -->
    <path d="M2 10 C12 8, 22 12, 35 10 S55 7, 70 10 S90 14, 105 10 S125 6, 140 10 S160 14, 175 10 S190 8, 198 10" stroke-width="1.5" opacity="0.6"/>
    <!-- Tiny leaves -->
    <path d="M25 11 C22 7, 26 5, 28 9" stroke-width="0.8" opacity="0.5" fill="#3DDC84" fill-opacity="0.2"/>
    <path d="M55 9 C52 5, 56 3, 58 7" stroke-width="0.8" opacity="0.45" fill="#3DDC84" fill-opacity="0.18"/>
    <path d="M85 12 C88 16, 84 18, 82 14" stroke-width="0.8" opacity="0.5" fill="#3DDC84" fill-opacity="0.2"/>
    <path d="M115 9 C112 5, 116 3, 118 7" stroke-width="0.8" opacity="0.45" fill="#3DDC84" fill-opacity="0.18"/>
    <path d="M148 11 C145 7, 149 5, 151 9" stroke-width="0.8" opacity="0.5" fill="#3DDC84" fill-opacity="0.2"/>
    <path d="M180 10 C183 14, 179 16, 177 12" stroke-width="0.8" opacity="0.45" fill="#3DDC84" fill-opacity="0.18"/>
  </g>
</svg>
