<svg xmlns="http://www.w3.org/2000/svg" viewBox="0 0 100 100">
  <g fill="none" stroke-linecap="round" stroke-linejoin="round">
    <!-- Outer vine ring -->
    <path d="M50 8 C72 6, 92 22, 94 44 S84 82, 58 93 C42 97, 18 88, 9 66 S4 24, 28 10 C36 6, 44 7, 50 8" stroke="#3DDC84" stroke-width="1.8" opacity="0.5"/>
    <!-- Inner vine ring -->
    <path d="M50 14 C68 12, 84 26, 86 44 S78 76, 56 85 C42 89, 22 82, 15 64 S10 30, 30 16 C38 12, 46 13, 50 14" stroke="#2BA866" stroke-width="1.5" opacity="0.4"/>
    <!-- Leaves around the ring -->
    <path d="M72 12 C78 8, 82 12, 77 17" stroke="#3DDC84" stroke-width="1.2" opacity="0.5" fill="#3DDC84" fill-opacity="0.15"/>
    <path d="M92 38 C98 35, 99 42, 94 44" stroke="#2BA866" stroke-width="1" opacity="0.45" fill="#2BA866" fill-opacity="0.12"/>
    <path d="M88 68 C94 72, 91 78, 85 74" stroke="#3DDC84" stroke-width="1.2" opacity="0.5" fill="#3DDC84" fill-opacity="0.15"/>
    <path d="M62 92 C66 98, 58 99, 56 93" stroke="#2BA866" stroke-width="1" opacity="0.4" fill="#2BA866" fill-opacity="0.12"/>
    <path d="M28 90 C22 95, 18 90, 23 85" stroke="#3DDC84" stroke-width="1.2" opacity="0.45" fill="#3DDC84" fill-opacity="0.15"/>
    <path d="M8 58 C2 62, 1 55, 7 53" stroke="#2BA866" stroke-width="1" opacity="0.4" fill="#2BA866" fill-opacity="0.12"/>
    <path d="M10 30 C4 26, 7 20, 13 24" stroke="#3DDC84" stroke-width="1.2" opacity="0.5" fill="#3DDC84" fill-opacity="0.15"/>
    <path d="M38 8 C35 2, 42 1, 43 7" stroke="#2BA866" stroke-width="1" opacity="0.45" fill="#2BA866" fill-opacity="0.12"/>
    <!-- Small tendrils -->
    <path d="M80 22 C84 18, 86 22, 83 25" stroke="#3DDC84" stroke-width="0.8" opacity="0.35"/>
    <path d="M18 76 C14 80, 12 76, 15 73" stroke="#3DDC84" stroke-width="0.8" opacity="0.35"/>
    <path d="M46 94 C44 98, 48 99, 49 95" stroke="#2BA866" stroke-width="0.8" opacity="0.3"/>
  </g>
</svg>
